<svg width="30" height="30" viewBox="0 0 30 30" fill="none" xmlns="http://www.w3.org/2000/svg">
<path fill-rule="evenodd" clip-rule="evenodd" d="M15 2.5C21.9035 2.5 27.5 8.09644 27.5 15C27.5 15.811 27.4226 16.605 27.2745 17.3749C26.809 19.7936 24.4493 20.8639 22.3914 20.6189L22.1721 20.5876L19.9972 20.2251C19.4837 20.1395 18.9605 20.3072 18.5925 20.6752C18.1301 21.1376 17.9091 21.7733 18.2202 22.3954C18.7486 23.4521 18.756 24.6604 18.289 25.6493C17.6634 26.9742 16.387 27.5 15 27.5C8.09644 27.5 2.5 21.9035 2.5 15C2.5 8.09644 8.09644 2.5 15 2.5ZM9.375 13.75C8.33946 13.75 7.5 14.5895 7.5 15.625C7.5 16.6605 8.33946 17.5 9.375 17.5C10.4105 17.5 11.25 16.6605 11.25 15.625C11.25 14.5895 10.4105 13.75 9.375 13.75ZM18.125 8.75C17.0895 8.75 16.25 9.58946 16.25 10.625C16.25 11.6605 17.0895 12.5 18.125 12.5C19.1605 12.5 20 11.6605 20 10.625C20 9.58946 19.1605 8.75 18.125 8.75ZM11.875 8.75C10.8395 8.75 10 9.58946 10 10.625C10 11.6605 10.8395 12.5 11.875 12.5C12.9105 12.5 13.75 11.6605 13.75 10.625C13.75 9.58946 12.9105 8.75 11.875 8.75Z" fill="#32C37C"/>
</svg>
