<svg width="30" height="30" viewBox="0 0 30 30" fill="none" xmlns="http://www.w3.org/2000/svg">
<path d="M16.7366 5.15177C17.4165 5.27165 17.8705 5.91997 17.7506 6.59983L14.7118 23.834C14.5919 24.5139 13.9435 24.9677 13.2636 24.8479C12.5838 24.728 12.1298 24.0797 12.2497 23.3999L15.2885 6.16572C15.4084 5.48585 16.0568 5.03188 16.7366 5.15177ZM9.00897 8.81267C9.49713 9.30082 9.49713 10.0923 9.00897 10.5804L4.58955 14.9999L9.00897 19.4192C9.49713 19.9074 9.49713 20.6989 9.00897 21.187C8.52082 21.6752 7.72935 21.6752 7.2412 21.187L1.9379 15.8837C1.70348 15.6494 1.57178 15.3314 1.57178 14.9999C1.57178 14.6684 1.70348 14.3504 1.9379 14.116L7.2412 8.81267C7.72935 8.32451 8.52082 8.32451 9.00897 8.81267ZM22.759 8.81267L28.0623 14.116C28.2966 14.3504 28.4284 14.6684 28.4284 14.9999C28.4284 15.3314 28.2966 15.6494 28.0623 15.8837L22.759 21.187C22.2708 21.6752 21.4794 21.6752 20.9913 21.187C20.503 20.6989 20.503 19.9074 20.9913 19.4192L25.4106 14.9999L20.9913 10.5804C20.503 10.0923 20.503 9.30082 20.9913 8.81267C21.4794 8.32451 22.2708 8.32451 22.759 8.81267Z" fill="#32C37C"/>
</svg>
