<svg width="32" height="32" viewBox="0 0 32 32" fill="none" xmlns="http://www.w3.org/2000/svg">
<path d="M5.008 21V9.656H7.072L11.424 16.232H10.448L14.784 9.656H16.848V21H14.016V14.392L14.464 14.52L11.856 18.44H10L7.408 14.52L7.856 14.392V21H5.008Z" fill="white"/>
<path d="M20.8994 16.408V14.36H23.0594C23.5287 14.36 23.886 14.248 24.1314 14.024C24.3874 13.7893 24.5154 13.4747 24.5154 13.08C24.5154 12.696 24.3874 12.3867 24.1314 12.152C23.886 11.9067 23.5287 11.784 23.0594 11.784H20.8994V9.656H23.4594C24.2274 9.656 24.8994 9.8 25.4754 10.088C26.062 10.376 26.5207 10.7707 26.8514 11.272C27.182 11.7733 27.3474 12.36 27.3474 13.032C27.3474 13.704 27.1767 14.296 26.8354 14.808C26.5047 15.3093 26.0407 15.704 25.4434 15.992C24.846 16.2693 24.1474 16.408 23.3474 16.408H20.8994ZM18.6274 21V9.656H21.4914V21H18.6274ZM24.7714 21L21.4754 16.136L24.0514 15.512L28.0834 21H24.7714Z" fill="#32C37C"/>
</svg>
