<svg width="36" height="36" viewBox="0 0 36 36" fill="none" xmlns="http://www.w3.org/2000/svg">
<path d="M20.457 17.892H19.026C19.116 17.505 19.35 17.154 19.827 17.154C20.196 17.154 20.457 17.496 20.457 17.892ZM36 18C36 27.9405 27.9405 36 18 36C8.0595 36 0 27.9405 0 18C0 8.0595 8.0595 0 18 0C27.9405 0 36 8.0595 36 18ZM9.324 14.67C9.324 14.8848 9.40934 15.0909 9.56124 15.2428C9.71315 15.3947 9.91918 15.48 10.134 15.48C10.3488 15.48 10.5549 15.3947 10.7068 15.2428C10.8587 15.0909 10.944 14.8848 10.944 14.67C10.944 14.4552 10.8587 14.2491 10.7068 14.0972C10.5549 13.9453 10.3488 13.86 10.134 13.86C9.91918 13.86 9.71315 13.9453 9.56124 14.0972C9.40934 14.2491 9.324 14.4552 9.324 14.67ZM11.601 19.8H10.971V16.011H7.272V15.768C7.272 15.291 7.749 15.282 7.992 15.282C8.271 15.282 8.397 15.309 8.397 15.309V13.995C8.397 13.995 8.145 13.959 7.803 13.959C7.029 13.959 5.598 14.175 5.598 15.813V16.02H4.923V17.235H5.598V19.8H4.968V21.015H8.01V19.8H7.272V17.235H9.297V19.8H8.667V21.015H11.601V19.8ZM16.722 17.226H17.28V16.011H14.625V17.226H15.075L14.499 19.026C14.391 19.323 14.364 19.683 14.364 19.683H14.328C14.328 19.683 14.301 19.323 14.193 19.026L13.617 17.226H14.067V16.011H11.412V17.226H11.97L13.356 21.006H15.336L16.722 17.226ZM22.194 18.306C22.194 16.92 21.357 15.894 19.872 15.894C18.261 15.894 17.271 17.037 17.271 18.504C17.271 19.836 18.234 21.123 20.016 21.123C21.366 21.123 22.167 20.421 22.167 20.421L21.555 19.26C21.555 19.26 20.889 19.737 20.151 19.737C19.62 19.737 19.116 19.458 18.99 18.819H22.158C22.149 18.81 22.194 18.468 22.194 18.306ZM26.658 15.948C26.658 15.948 26.559 15.93 26.46 15.93C25.695 15.921 25.065 16.479 24.858 17.163H24.84C24.84 17.163 24.858 17.064 24.858 16.911V16.65C24.858 16.191 24.606 16.011 24.147 16.011H22.572V17.226H23.04C23.175 17.226 23.256 17.307 23.256 17.442V19.8H22.581V21.015H25.614V19.8H24.939V19.071C24.939 18.162 25.389 17.568 26.316 17.568C26.523 17.568 26.658 17.595 26.658 17.595V15.948ZM31.095 17.595V15.948C31.095 15.948 30.996 15.93 30.897 15.93C30.141 15.921 29.511 16.479 29.295 17.163H29.277C29.277 17.163 29.295 17.064 29.295 16.911V16.65C29.295 16.191 29.043 16.011 28.584 16.011H27.009V17.226H27.477C27.612 17.226 27.693 17.307 27.693 17.442V19.8H27.018V21.015H30.051V19.8H29.376V19.071C29.376 18.162 29.826 17.568 30.753 17.568C30.96 17.568 31.095 17.595 31.095 17.595Z" fill="white"/>
</svg>
