<svg width="61" height="30" viewBox="0 0 61 30" fill="none" xmlns="http://www.w3.org/2000/svg">
<path d="M0.856 30V0.347999H5.56L17.236 18.534H14.842L26.476 0.347999H31.222V30H24.628V11.478L25.804 11.772L18.202 23.616H13.834L6.274 11.772L7.408 11.478V30H0.856Z" fill="white"/>
<path d="M41.9487 17.778V12.906H48.2067C49.5227 12.906 50.5307 12.57 51.2307 11.898C51.9587 11.226 52.3227 10.316 52.3227 9.168C52.3227 8.104 51.9727 7.222 51.2727 6.522C50.5727 5.822 49.5647 5.472 48.2487 5.472H41.9487V0.347999H49.0047C50.9647 0.347999 52.6867 0.725999 54.1707 1.482C55.6547 2.21 56.8167 3.232 57.6567 4.548C58.4967 5.864 58.9167 7.376 58.9167 9.084C58.9167 10.82 58.4967 12.346 57.6567 13.662C56.8167 14.95 55.6407 15.958 54.1287 16.686C52.6167 17.414 50.8387 17.778 48.7947 17.778H41.9487ZM36.9087 30V0.347999H43.5027V30H36.9087ZM53.0367 30L43.7967 17.232L49.8447 15.594L60.8487 30H53.0367Z" fill="#32C37C"/>
</svg>
