<svg width="36" height="26" viewBox="0 0 36 26" fill="none" xmlns="http://www.w3.org/2000/svg">
<path d="M27.8415 14.499C26.1885 14.499 24.639 13.7985 23.2305 12.6585L23.5725 11.0445L23.5845 10.9815C23.895 9.267 24.858 6.3915 27.843 6.3915C30.081 6.3915 31.8975 8.2095 31.8975 10.446C31.896 12.6795 30.0795 14.499 27.8415 14.499ZM27.8415 2.289C24.033 2.289 21.0765 4.7625 19.8765 8.838C18.0465 6.087 16.6545 2.784 15.846 0H11.742V10.668C11.739 12.777 10.0305 14.487 7.9215 14.49C5.814 14.487 4.107 12.7755 4.104 10.668V0H0V10.668C0 15.039 3.555 18.6225 7.9215 18.6225C12.291 18.6225 15.846 15.039 15.846 10.668V8.883C16.6395 10.5435 17.619 12.2265 18.807 13.7145L16.2975 25.524H20.493L22.3125 16.959C23.907 17.9775 25.74 18.6225 27.8415 18.6225C32.3415 18.6225 36 14.9445 36 10.4475C36 5.9475 32.3415 2.289 27.8415 2.289Z" fill="white"/>
</svg>
